<svg height="512" viewBox="0 0 64 64" width="512" xmlns="http://www.w3.org/2000/svg"><g id="rich"><path d="m2 59.14v1.86a1 1 0 0 0 1 1h1.86a4.017 4.017 0 0 0 -2.86-2.86z"/><path d="m2 33v1.86a4.017 4.017 0 0 0 2.86-2.86h-1.86a1 1 0 0 0 -1 1z"/><path d="m59.14 62h1.86a1 1 0 0 0 1-1v-1.86a4.017 4.017 0 0 0 -2.86 2.86z"/><path d="m61 32h-1.86a4.017 4.017 0 0 0 2.86 2.86v-1.86a1 1 0 0 0 -1-1z"/><path d="m57.09 32h-50.18a5.992 5.992 0 0 1 -4.91 4.91v20.18a5.992 5.992 0 0 1 4.91 4.91h50.18a5.992 5.992 0 0 1 4.91-4.91v-20.18a5.992 5.992 0 0 1 -4.91-4.91zm-25.09 26a11 11 0 1 1 11-11 11.013 11.013 0 0 1 -11 11z"/><path d="m32 38a9 9 0 1 0 9 9 9.01 9.01 0 0 0 -9-9zm3 6h-4v2h2a2 2 0 0 1 2 2v2a2 2 0 0 1 -2 2v2h-2v-2h-2v-2h4v-2h-2a2 2 0 0 1 -2-2v-2a2 2 0 0 1 2-2v-2h2v2h2z"/><path d="m39.94 9.35a1.007 1.007 0 0 1 -.94.65h-3v7a1 1 0 0 1 -1 1h-6a1 1 0 0 1 -1-1v-7h-3a1 1 0 0 1 -.65-1.76l7-6a1 1 0 0 1 1.3 0l7 6a1.008 1.008 0 0 1 .29 1.11z"/><path d="m28 20h8v2h-8z"/><path d="m28 24h8v2h-8z"/><path d="m28 28h8v2h-8z"/><path d="m61.94 13.35a1.007 1.007 0 0 1 -.94.65h-3v7a1 1 0 0 1 -1 1h-6a1 1 0 0 1 -1-1v-7h-3a1 1 0 0 1 -.65-1.76l7-6a1 1 0 0 1 1.3 0l7 6a1.008 1.008 0 0 1 .29 1.11z"/><path d="m50 24h8v2h-8z"/><path d="m50 28h8v2h-8z"/><path d="m17.94 13.35a1.007 1.007 0 0 1 -.94.65h-3v7a1 1 0 0 1 -1 1h-6a1 1 0 0 1 -1-1v-7h-3a1 1 0 0 1 -.65-1.76l7-6a1 1 0 0 1 1.3 0l7 6a1.008 1.008 0 0 1 .29 1.11z"/><path d="m6 24h8v2h-8z"/><path d="m6 28h8v2h-8z"/></g></svg>